<svg xmlns="http://www.w3.org/2000/svg" xmlns:xlink="http://www.w3.org/1999/xlink" width="1000" zoomAndPan="magnify" viewBox="0 0 750 749.999995" height="1000" preserveAspectRatio="xMidYMid meet" version="1.0"><defs><clipPath id="86049a304e"><path d="M 375 0 C 167.894531 0 0 167.894531 0 375 C 0 582.105469 167.894531 750 375 750 C 582.105469 750 750 582.105469 750 375 C 750 167.894531 582.105469 0 375 0 Z M 375 0 " clip-rule="nonzero"/></clipPath><clipPath id="ffdc79614f"><path d="M 0 0 L 750 0 L 750 750 L 0 750 Z M 0 0 " clip-rule="nonzero"/></clipPath><clipPath id="faf01182c1"><path d="M 375 0 C 167.894531 0 0 167.894531 0 375 C 0 582.105469 167.894531 750 375 750 C 582.105469 750 750 582.105469 750 375 C 750 167.894531 582.105469 0 375 0 Z M 375 0 " clip-rule="nonzero"/></clipPath><clipPath id="0997987aff"><rect x="0" width="750" y="0" height="750"/></clipPath><clipPath id="0f9c04c248"><path d="M 132.890625 348 L 349 348 L 349 617.390625 L 132.890625 617.390625 Z M 132.890625 348 " clip-rule="nonzero"/></clipPath><clipPath id="34a76399c9"><path d="M 132.890625 132.890625 L 349 132.890625 L 349 295 L 132.890625 295 Z M 132.890625 132.890625 " clip-rule="nonzero"/></clipPath><clipPath id="35e7b305d0"><path d="M 402 455 L 617.390625 455 L 617.390625 617.390625 L 402 617.390625 Z M 402 455 " clip-rule="nonzero"/></clipPath><clipPath id="d1005235bc"><path d="M 402 132.890625 L 617.390625 132.890625 L 617.390625 403 L 402 403 Z M 402 132.890625 " clip-rule="nonzero"/></clipPath></defs><rect x="-75" width="900" fill="#ffffff" y="-74.999999" height="899.999994" fill-opacity="1"/><rect x="-75" width="900" fill="#f7f1e3" y="-74.999999" height="899.999994" fill-opacity="1"/><g clip-path="url(#86049a304e)"><g transform="matrix(1, 0, 0, 1, 0, -0.000000000000042435)"><g clip-path="url(#0997987aff)"><g clip-path="url(#ffdc79614f)"><g clip-path="url(#faf01182c1)"><rect x="-165" width="1080" fill="#f7f1e3" height="1079.999992" y="-164.999999" fill-opacity="1"/></g></g></g></g></g><g clip-path="url(#0f9c04c248)"><path fill="#000000" d="M 159.804688 348.222656 L 321.304688 348.222656 C 322.1875 348.222656 323.066406 348.265625 323.945312 348.351562 C 324.820312 348.4375 325.691406 348.566406 326.558594 348.738281 C 327.421875 348.910156 328.277344 349.125 329.121094 349.382812 C 329.964844 349.636719 330.792969 349.933594 331.605469 350.269531 C 332.421875 350.609375 333.21875 350.984375 333.996094 351.402344 C 334.773438 351.816406 335.527344 352.269531 336.261719 352.757812 C 336.992188 353.25 337.699219 353.773438 338.382812 354.332031 C 339.0625 354.890625 339.714844 355.484375 340.339844 356.105469 C 340.960938 356.730469 341.554688 357.382812 342.113281 358.0625 C 342.671875 358.746094 343.195312 359.453125 343.6875 360.183594 C 344.175781 360.917969 344.628906 361.671875 345.042969 362.449219 C 345.460938 363.226562 345.835938 364.023438 346.171875 364.839844 C 346.511719 365.652344 346.808594 366.480469 347.0625 367.324219 C 347.320312 368.167969 347.535156 369.023438 347.707031 369.886719 C 347.878906 370.753906 348.007812 371.625 348.09375 372.5 C 348.179688 373.378906 348.222656 374.257812 348.222656 375.140625 L 348.222656 590.472656 C 348.222656 591.355469 348.179688 592.234375 348.09375 593.109375 C 348.007812 593.988281 347.878906 594.859375 347.707031 595.722656 C 347.535156 596.589844 347.320312 597.441406 347.0625 598.285156 C 346.808594 599.128906 346.511719 599.957031 346.171875 600.773438 C 345.835938 601.585938 345.460938 602.382812 345.042969 603.160156 C 344.628906 603.9375 344.175781 604.695312 343.6875 605.425781 C 343.195312 606.160156 342.671875 606.867188 342.113281 607.546875 C 341.554688 608.230469 340.960938 608.882812 340.339844 609.503906 C 339.714844 610.128906 339.0625 610.71875 338.382812 611.28125 C 337.699219 611.839844 336.992188 612.363281 336.261719 612.851562 C 335.527344 613.34375 334.773438 613.796875 333.996094 614.210938 C 333.21875 614.625 332.421875 615.003906 331.605469 615.339844 C 330.792969 615.675781 329.964844 615.972656 329.121094 616.230469 C 328.277344 616.484375 327.421875 616.699219 326.558594 616.871094 C 325.691406 617.042969 324.820312 617.171875 323.945312 617.257812 C 323.066406 617.347656 322.1875 617.390625 321.304688 617.390625 L 159.804688 617.390625 C 158.925781 617.390625 158.042969 617.347656 157.167969 617.257812 C 156.289062 617.171875 155.417969 617.042969 154.554688 616.871094 C 153.691406 616.699219 152.835938 616.484375 151.992188 616.230469 C 151.148438 615.972656 150.320312 615.675781 149.503906 615.339844 C 148.691406 615.003906 147.894531 614.625 147.117188 614.210938 C 146.339844 613.796875 145.585938 613.34375 144.851562 612.851562 C 144.117188 612.363281 143.410156 611.839844 142.730469 611.28125 C 142.046875 610.71875 141.394531 610.128906 140.773438 609.503906 C 140.148438 608.882812 139.558594 608.230469 139 607.546875 C 138.441406 606.867188 137.914062 606.160156 137.425781 605.425781 C 136.9375 604.695312 136.484375 603.9375 136.066406 603.160156 C 135.652344 602.382812 135.277344 601.585938 134.9375 600.773438 C 134.601562 599.957031 134.304688 599.128906 134.046875 598.285156 C 133.792969 597.441406 133.578125 596.589844 133.40625 595.722656 C 133.234375 594.859375 133.105469 593.988281 133.019531 593.109375 C 132.933594 592.234375 132.890625 591.355469 132.890625 590.472656 L 132.890625 375.140625 C 132.890625 374.257812 132.933594 373.378906 133.019531 372.5 C 133.105469 371.625 133.234375 370.753906 133.40625 369.886719 C 133.578125 369.023438 133.792969 368.167969 134.046875 367.324219 C 134.304688 366.480469 134.601562 365.652344 134.9375 364.839844 C 135.277344 364.023438 135.652344 363.226562 136.066406 362.449219 C 136.484375 361.671875 136.9375 360.917969 137.425781 360.183594 C 137.914062 359.453125 138.441406 358.746094 139 358.0625 C 139.558594 357.382812 140.148438 356.730469 140.773438 356.105469 C 141.394531 355.484375 142.046875 354.890625 142.730469 354.332031 C 143.410156 353.773438 144.117188 353.25 144.851562 352.757812 C 145.585938 352.269531 146.339844 351.816406 147.117188 351.402344 C 147.894531 350.984375 148.691406 350.609375 149.503906 350.269531 C 150.320312 349.933594 151.148438 349.636719 151.992188 349.382812 C 152.835938 349.125 153.691406 348.910156 154.554688 348.738281 C 155.417969 348.566406 156.289062 348.4375 157.167969 348.351562 C 158.042969 348.265625 158.925781 348.222656 159.804688 348.222656 Z M 159.804688 348.222656 " fill-opacity="1" fill-rule="nonzero"/></g><g clip-path="url(#34a76399c9)"><path fill="#000000" d="M 159.804688 132.890625 L 321.304688 132.890625 C 322.1875 132.890625 323.066406 132.933594 323.945312 133.019531 C 324.820312 133.105469 325.691406 133.234375 326.558594 133.40625 C 327.421875 133.578125 328.277344 133.792969 329.121094 134.046875 C 329.964844 134.304688 330.792969 134.601562 331.605469 134.9375 C 332.421875 135.277344 333.21875 135.652344 333.996094 136.066406 C 334.773438 136.484375 335.527344 136.9375 336.261719 137.425781 C 336.992188 137.914062 337.699219 138.441406 338.382812 139 C 339.0625 139.558594 339.714844 140.148438 340.339844 140.773438 C 340.960938 141.394531 341.554688 142.046875 342.113281 142.730469 C 342.671875 143.410156 343.195312 144.117188 343.6875 144.851562 C 344.175781 145.585938 344.628906 146.339844 345.042969 147.117188 C 345.460938 147.894531 345.835938 148.691406 346.171875 149.503906 C 346.511719 150.320312 346.808594 151.148438 347.0625 151.992188 C 347.320312 152.835938 347.535156 153.691406 347.707031 154.554688 C 347.878906 155.417969 348.007812 156.289062 348.09375 157.167969 C 348.179688 158.042969 348.222656 158.925781 348.222656 159.804688 L 348.222656 267.472656 C 348.222656 268.355469 348.179688 269.234375 348.09375 270.109375 C 348.007812 270.988281 347.878906 271.859375 347.707031 272.722656 C 347.535156 273.589844 347.320312 274.441406 347.0625 275.285156 C 346.808594 276.128906 346.511719 276.957031 346.171875 277.773438 C 345.835938 278.585938 345.460938 279.382812 345.042969 280.160156 C 344.628906 280.9375 344.175781 281.695312 343.6875 282.425781 C 343.195312 283.160156 342.671875 283.867188 342.113281 284.546875 C 341.554688 285.230469 340.960938 285.882812 340.339844 286.503906 C 339.714844 287.128906 339.0625 287.71875 338.382812 288.28125 C 337.699219 288.839844 336.992188 289.363281 336.261719 289.851562 C 335.527344 290.34375 334.773438 290.796875 333.996094 291.210938 C 333.21875 291.625 332.421875 292.003906 331.605469 292.339844 C 330.792969 292.675781 329.964844 292.972656 329.121094 293.230469 C 328.277344 293.484375 327.421875 293.699219 326.558594 293.871094 C 325.691406 294.042969 324.820312 294.171875 323.945312 294.257812 C 323.066406 294.347656 322.1875 294.390625 321.304688 294.390625 L 159.804688 294.390625 C 158.925781 294.390625 158.042969 294.347656 157.167969 294.257812 C 156.289062 294.171875 155.417969 294.042969 154.554688 293.871094 C 153.691406 293.699219 152.835938 293.484375 151.992188 293.230469 C 151.148438 292.972656 150.320312 292.675781 149.503906 292.339844 C 148.691406 292.003906 147.894531 291.625 147.117188 291.210938 C 146.339844 290.796875 145.585938 290.34375 144.851562 289.851562 C 144.117188 289.363281 143.410156 288.839844 142.730469 288.28125 C 142.046875 287.71875 141.394531 287.128906 140.773438 286.503906 C 140.148438 285.882812 139.558594 285.230469 139 284.546875 C 138.441406 283.867188 137.914062 283.160156 137.425781 282.425781 C 136.9375 281.695312 136.484375 280.9375 136.066406 280.160156 C 135.652344 279.382812 135.277344 278.585938 134.9375 277.773438 C 134.601562 276.957031 134.304688 276.128906 134.046875 275.285156 C 133.792969 274.441406 133.578125 273.589844 133.40625 272.722656 C 133.234375 271.859375 133.105469 270.988281 133.019531 270.109375 C 132.933594 269.234375 132.890625 268.355469 132.890625 267.472656 L 132.890625 159.804688 C 132.890625 158.925781 132.933594 158.042969 133.019531 157.167969 C 133.105469 156.289062 133.234375 155.417969 133.40625 154.554688 C 133.578125 153.691406 133.792969 152.835938 134.046875 151.992188 C 134.304688 151.148438 134.601562 150.320312 134.9375 149.503906 C 135.277344 148.691406 135.652344 147.894531 136.066406 147.117188 C 136.484375 146.339844 136.9375 145.585938 137.425781 144.851562 C 137.914062 144.117188 138.441406 143.410156 139 142.730469 C 139.558594 142.046875 140.148438 141.394531 140.773438 140.773438 C 141.394531 140.148438 142.046875 139.558594 142.730469 139 C 143.410156 138.441406 144.117188 137.914062 144.851562 137.425781 C 145.585938 136.9375 146.339844 136.484375 147.117188 136.066406 C 147.894531 135.652344 148.691406 135.277344 149.503906 134.9375 C 150.320312 134.601562 151.148438 134.304688 151.992188 134.046875 C 152.835938 133.792969 153.691406 133.578125 154.554688 133.40625 C 155.417969 133.234375 156.289062 133.105469 157.167969 133.019531 C 158.042969 132.933594 158.925781 132.890625 159.804688 132.890625 Z M 159.804688 132.890625 " fill-opacity="1" fill-rule="nonzero"/></g><g clip-path="url(#35e7b305d0)"><path fill="#000000" d="M 428.972656 455.890625 L 590.472656 455.890625 C 591.355469 455.890625 592.234375 455.933594 593.109375 456.019531 C 593.988281 456.105469 594.859375 456.234375 595.722656 456.40625 C 596.589844 456.578125 597.441406 456.792969 598.285156 457.046875 C 599.128906 457.304688 599.957031 457.601562 600.773438 457.9375 C 601.585938 458.277344 602.382812 458.652344 603.160156 459.066406 C 603.9375 459.484375 604.695312 459.9375 605.425781 460.425781 C 606.160156 460.914062 606.867188 461.441406 607.546875 462 C 608.230469 462.558594 608.882812 463.148438 609.503906 463.773438 C 610.128906 464.394531 610.71875 465.046875 611.28125 465.730469 C 611.839844 466.410156 612.363281 467.117188 612.851562 467.851562 C 613.34375 468.585938 613.796875 469.339844 614.210938 470.117188 C 614.625 470.894531 615.003906 471.691406 615.339844 472.503906 C 615.675781 473.320312 615.972656 474.148438 616.230469 474.992188 C 616.484375 475.835938 616.699219 476.691406 616.871094 477.554688 C 617.042969 478.417969 617.171875 479.289062 617.257812 480.167969 C 617.347656 481.046875 617.390625 481.925781 617.390625 482.804688 L 617.390625 590.472656 C 617.390625 591.355469 617.347656 592.234375 617.257812 593.109375 C 617.171875 593.988281 617.042969 594.859375 616.871094 595.722656 C 616.699219 596.589844 616.484375 597.441406 616.230469 598.285156 C 615.972656 599.128906 615.675781 599.957031 615.339844 600.773438 C 615.003906 601.585938 614.625 602.382812 614.210938 603.160156 C 613.796875 603.9375 613.34375 604.695312 612.851562 605.425781 C 612.363281 606.160156 611.839844 606.867188 611.28125 607.546875 C 610.71875 608.230469 610.128906 608.882812 609.503906 609.503906 C 608.882812 610.128906 608.230469 610.71875 607.546875 611.28125 C 606.867188 611.839844 606.160156 612.363281 605.425781 612.851562 C 604.695312 613.34375 603.9375 613.796875 603.160156 614.210938 C 602.382812 614.625 601.585938 615.003906 600.773438 615.339844 C 599.957031 615.675781 599.128906 615.972656 598.285156 616.230469 C 597.441406 616.484375 596.589844 616.699219 595.722656 616.871094 C 594.859375 617.042969 593.988281 617.171875 593.109375 617.257812 C 592.234375 617.347656 591.355469 617.390625 590.472656 617.390625 L 428.972656 617.390625 C 428.089844 617.390625 427.210938 617.347656 426.335938 617.257812 C 425.457031 617.171875 424.585938 617.042969 423.722656 616.871094 C 422.855469 616.699219 422.003906 616.484375 421.160156 616.230469 C 420.316406 615.972656 419.488281 615.675781 418.671875 615.339844 C 417.859375 615.003906 417.0625 614.625 416.285156 614.210938 C 415.507812 613.796875 414.75 613.34375 414.019531 612.851562 C 413.285156 612.363281 412.578125 611.839844 411.898438 611.28125 C 411.214844 610.71875 410.5625 610.128906 409.941406 609.503906 C 409.316406 608.882812 408.726562 608.230469 408.164062 607.546875 C 407.605469 606.867188 407.082031 606.160156 406.59375 605.425781 C 406.101562 604.695312 405.648438 603.9375 405.234375 603.160156 C 404.820312 602.382812 404.441406 601.585938 404.105469 600.773438 C 403.765625 599.957031 403.472656 599.128906 403.214844 598.285156 C 402.957031 597.441406 402.746094 596.589844 402.574219 595.722656 C 402.402344 594.859375 402.273438 593.988281 402.183594 593.109375 C 402.097656 592.234375 402.054688 591.355469 402.054688 590.472656 L 402.054688 482.804688 C 402.054688 481.925781 402.097656 481.046875 402.183594 480.167969 C 402.273438 479.289062 402.402344 478.417969 402.574219 477.554688 C 402.746094 476.691406 402.957031 475.835938 403.214844 474.992188 C 403.472656 474.148438 403.765625 473.320312 404.105469 472.503906 C 404.441406 471.691406 404.820312 470.894531 405.234375 470.117188 C 405.648438 469.339844 406.101562 468.585938 406.59375 467.851562 C 407.082031 467.117188 407.605469 466.410156 408.164062 465.730469 C 408.726562 465.046875 409.316406 464.394531 409.941406 463.773438 C 410.5625 463.148438 411.214844 462.558594 411.898438 462 C 412.578125 461.441406 413.285156 460.914062 414.019531 460.425781 C 414.75 459.9375 415.507812 459.484375 416.285156 459.066406 C 417.0625 458.652344 417.859375 458.277344 418.671875 457.9375 C 419.488281 457.601562 420.316406 457.304688 421.160156 457.046875 C 422.003906 456.792969 422.855469 456.578125 423.722656 456.40625 C 424.585938 456.234375 425.457031 456.105469 426.335938 456.019531 C 427.210938 455.933594 428.089844 455.890625 428.972656 455.890625 Z M 428.972656 455.890625 " fill-opacity="1" fill-rule="nonzero"/></g><g clip-path="url(#d1005235bc)"><path fill="#000000" d="M 428.972656 132.890625 L 590.472656 132.890625 C 591.355469 132.890625 592.234375 132.933594 593.109375 133.019531 C 593.988281 133.105469 594.859375 133.234375 595.722656 133.40625 C 596.589844 133.578125 597.441406 133.792969 598.285156 134.046875 C 599.128906 134.304688 599.957031 134.601562 600.773438 134.9375 C 601.585938 135.277344 602.382812 135.652344 603.160156 136.066406 C 603.9375 136.484375 604.695312 136.9375 605.425781 137.425781 C 606.160156 137.914062 606.867188 138.441406 607.546875 139 C 608.230469 139.558594 608.882812 140.148438 609.503906 140.773438 C 610.128906 141.394531 610.71875 142.046875 611.28125 142.730469 C 611.839844 143.410156 612.363281 144.117188 612.851562 144.851562 C 613.34375 145.585938 613.796875 146.339844 614.210938 147.117188 C 614.625 147.894531 615.003906 148.691406 615.339844 149.503906 C 615.675781 150.320312 615.972656 151.148438 616.230469 151.992188 C 616.484375 152.835938 616.699219 153.691406 616.871094 154.554688 C 617.042969 155.417969 617.171875 156.289062 617.257812 157.167969 C 617.347656 158.042969 617.390625 158.925781 617.390625 159.804688 L 617.390625 375.140625 C 617.390625 376.019531 617.347656 376.898438 617.257812 377.777344 C 617.171875 378.65625 617.042969 379.527344 616.871094 380.390625 C 616.699219 381.253906 616.484375 382.109375 616.230469 382.953125 C 615.972656 383.796875 615.675781 384.625 615.339844 385.441406 C 615.003906 386.253906 614.625 387.050781 614.210938 387.828125 C 613.796875 388.605469 613.34375 389.359375 612.851562 390.09375 C 612.363281 390.828125 611.839844 391.535156 611.28125 392.214844 C 610.71875 392.894531 610.128906 393.546875 609.503906 394.171875 C 608.882812 394.796875 608.230469 395.386719 607.546875 395.945312 C 606.867188 396.503906 606.160156 397.03125 605.425781 397.519531 C 604.695312 398.007812 603.9375 398.460938 603.160156 398.878906 C 602.382812 399.292969 601.585938 399.667969 600.773438 400.007812 C 599.957031 400.34375 599.128906 400.640625 598.285156 400.898438 C 597.441406 401.152344 596.589844 401.367188 595.722656 401.539062 C 594.859375 401.710938 593.988281 401.839844 593.109375 401.925781 C 592.234375 402.011719 591.355469 402.054688 590.472656 402.054688 L 428.972656 402.054688 C 428.089844 402.054688 427.210938 402.011719 426.335938 401.925781 C 425.457031 401.839844 424.585938 401.710938 423.722656 401.539062 C 422.855469 401.367188 422.003906 401.152344 421.160156 400.898438 C 420.316406 400.640625 419.488281 400.34375 418.671875 400.007812 C 417.859375 399.667969 417.0625 399.292969 416.285156 398.878906 C 415.507812 398.460938 414.75 398.007812 414.019531 397.519531 C 413.285156 397.03125 412.578125 396.503906 411.898438 395.945312 C 411.214844 395.386719 410.5625 394.796875 409.941406 394.171875 C 409.316406 393.546875 408.726562 392.894531 408.164062 392.214844 C 407.605469 391.535156 407.082031 390.828125 406.59375 390.09375 C 406.101562 389.359375 405.648438 388.605469 405.234375 387.828125 C 404.820312 387.050781 404.441406 386.253906 404.105469 385.441406 C 403.765625 384.625 403.472656 383.796875 403.214844 382.953125 C 402.957031 382.109375 402.746094 381.253906 402.574219 380.390625 C 402.402344 379.527344 402.273438 378.65625 402.183594 377.777344 C 402.097656 376.898438 402.054688 376.019531 402.054688 375.140625 L 402.054688 159.804688 C 402.054688 158.925781 402.097656 158.042969 402.183594 157.167969 C 402.273438 156.289062 402.402344 155.417969 402.574219 154.554688 C 402.746094 153.691406 402.957031 152.835938 403.214844 151.992188 C 403.472656 151.148438 403.765625 150.320312 404.105469 149.503906 C 404.441406 148.691406 404.820312 147.894531 405.234375 147.117188 C 405.648438 146.339844 406.101562 145.585938 406.59375 144.851562 C 407.082031 144.117188 407.605469 143.410156 408.164062 142.730469 C 408.726562 142.046875 409.316406 141.394531 409.941406 140.773438 C 410.5625 140.148438 411.214844 139.558594 411.898438 139 C 412.578125 138.441406 413.285156 137.914062 414.019531 137.425781 C 414.75 136.9375 415.507812 136.484375 416.285156 136.066406 C 417.0625 135.652344 417.859375 135.277344 418.671875 134.9375 C 419.488281 134.601562 420.316406 134.304688 421.160156 134.046875 C 422.003906 133.792969 422.855469 133.578125 423.722656 133.40625 C 424.585938 133.234375 425.457031 133.105469 426.335938 133.019531 C 427.210938 132.933594 428.089844 132.890625 428.972656 132.890625 Z M 428.972656 132.890625 " fill-opacity="1" fill-rule="nonzero"/></g></svg>